<?xml version="1.0" encoding="UTF-8"?>
<svg version="1.1" xmlns="http://www.w3.org/2000/svg" width="386" height="386">
<path d="M0 0 C11.73623768 -0.0907702 23.47223796 -0.16398519 35.20874882 -0.20724869 C40.65988893 -0.22802461 46.11077412 -0.25615742 51.56176758 -0.30175781 C56.83323572 -0.34557482 62.10446037 -0.36921204 67.37609673 -0.37950897 C69.37611149 -0.38683652 71.37611462 -0.40114328 73.37602425 -0.42292023 C88.61279179 -0.58206625 103.75024832 -0.33261575 116 10 C116.63421875 10.52464844 117.2684375 11.04929687 117.921875 11.58984375 C127.24592471 20.05719658 130.60145998 32.24066509 131.3203125 44.4921875 C131.8673402 59.98337765 129.68365415 75.24599484 119.03515625 87.20703125 C110.95486946 95.08275382 101.19848018 98.72747062 90 99 C94.90857387 105.87582332 100.59126021 111.95784722 106.40454102 118.0625 C110.15451869 122.00419631 113.79637588 126.01298223 117.36132812 130.12280273 C119.69327375 132.79418681 122.0935904 135.39541549 124.5 138 C128.17615535 141.9923298 131.81499322 146.0104522 135.36328125 150.1171875 C136.55538171 151.4885298 137.76333333 152.84614069 138.98046875 154.1953125 C139.62628906 154.91460937 140.27210938 155.63390625 140.9375 156.375 C141.52402344 157.02210938 142.11054688 157.66921875 142.71484375 158.3359375 C144 160 144 160 144 162 C137.10033349 162.33210018 130.20275115 162.55824954 123.296875 162.71411133 C120.95299302 162.77912953 118.60963105 162.86758372 116.26757812 162.98071289 C95.7316504 163.94716094 95.7316504 163.94716094 89.84033203 159.19335938 C86.72251747 156.09751808 84.37473782 152.68512117 82 149 C80.81795173 147.60233898 79.61670914 146.21993601 78.375 144.875 C77.84648437 144.26398438 77.31796875 143.65296875 76.7734375 143.0234375 C74.54861908 140.48498829 72.27496681 137.99358224 70 135.5 C67.17422616 132.40268033 64.36781221 129.2959585 61.625 126.125 C57.96315279 121.90648243 54.15651863 117.8255802 50.35449219 113.73388672 C47.62747867 110.79130927 44.95467516 107.82406008 42.375 104.75 C40.29807692 101.98878205 40.29807692 101.98878205 38 101 C38.01474869 101.74946396 38.02949738 102.49892792 38.04469299 103.27110291 C38.18250606 110.31973852 38.31548086 117.36844469 38.4429636 124.41727352 C38.5086825 128.04150485 38.57629966 131.6656804 38.64819336 135.28979492 C38.71745158 138.78452609 38.78180408 142.27931573 38.84269524 145.77420235 C38.87863704 147.76245142 38.91971453 149.75060547 38.96083069 151.73875427 C38.98092697 152.93992386 39.00102325 154.14109344 39.02172852 155.37866211 C39.04171402 156.44233505 39.06169952 157.506008 39.08229065 158.60191345 C39 161 39 161 38 162 C35.27275721 162.10099488 32.57137477 162.13970529 29.84375 162.1328125 C28.61754944 162.13424759 28.61754944 162.13424759 27.36657715 162.13571167 C25.63484622 162.13639345 23.90311276 162.13453929 22.17138672 162.13037109 C19.51133518 162.12502279 16.8514525 162.13031612 14.19140625 162.13671875 C12.51302046 162.13605797 10.83463477 162.1347768 9.15625 162.1328125 C8.35521851 162.13483673 7.55418701 162.13686096 6.72888184 162.13894653 C1.11495079 162.11495079 1.11495079 162.11495079 0 161 C-0.09532328 157.92545239 -0.1255138 154.87340842 -0.11352539 151.79858398 C-0.11367142 150.83283447 -0.11381744 149.86708496 -0.1139679 148.87207031 C-0.11326834 145.66338901 -0.10547397 142.45476497 -0.09765625 139.24609375 C-0.09579222 137.02791882 -0.09436825 134.80974348 -0.09336853 132.59156799 C-0.08954216 126.74059929 -0.07971086 120.88965523 -0.06866455 115.03869629 C-0.05845299 109.07332696 -0.05387146 103.10795367 -0.04882812 97.14257812 C-0.03808869 85.42837456 -0.02101085 73.71418933 0 62 C1.04125534 61.99191315 2.08251068 61.98382629 3.15531921 61.97549438 C12.96953871 61.89800013 22.78362014 61.81025245 32.59765911 61.71247292 C37.64312174 61.66253318 42.68856366 61.61620283 47.73413086 61.578125 C52.6036367 61.54124301 57.47296838 61.49487494 62.34232521 61.44193649 C64.19981645 61.42340807 66.05734501 61.40829438 67.9148922 61.39665604 C70.51725462 61.3797671 73.11921953 61.35072561 75.72143555 61.31884766 C76.4889212 61.31668747 77.25640686 61.31452728 78.04714966 61.31230164 C82.11568603 61.24865944 85.38234499 60.9276777 89 59 C91.36566809 56.14488334 91.96430576 54.32124816 92.375 50.625 C91.93502527 46.3719109 91.28314433 43.63876127 89 40 C83.49159303 38.19731224 78.41752864 37.69823253 72.65625 37.68115234 C71.86504257 37.67110672 71.07383514 37.6610611 70.25865173 37.65071106 C67.67244114 37.62009527 65.08633299 37.6029047 62.5 37.5859375 C60.69538505 37.56720842 58.89077869 37.54763373 57.08618164 37.5272522 C52.3582264 37.47610873 47.63024282 37.43638825 42.90216064 37.39910889 C37.2176131 37.3518861 31.5332042 37.29036502 25.84877014 37.23126221 C17.23256994 37.14326697 8.61639339 37.07334743 0 37 C0 24.79 0 12.58 0 0 Z " fill="#FCFCFC" transform="translate(158,112)"/>
<path d="M0 0 C12.21 0 24.42 0 37 0 C37 53.46 37 106.92 37 162 C24.79 162 12.58 162 0 162 C-0.15296175 141.02551013 -0.3017855 120.05100443 -0.4429636 99.07643223 C-0.50864442 89.33828693 -0.5762169 79.60016152 -0.64819336 69.86206055 C-0.71089967 61.37752838 -0.77010699 52.89298037 -0.82505554 44.40839428 C-0.8542927 39.91299723 -0.88532063 35.41762817 -0.92053413 30.92227364 C-0.95358377 26.69611633 -0.98197552 22.46995401 -1.00670624 18.24374008 C-1.01664717 16.68803003 -1.02832865 15.13233003 -1.04183006 13.5766468 C-1.05992992 11.46190894 -1.07191718 9.34722486 -1.08229065 7.23243713 C-1.09058679 6.04608956 -1.09888292 4.85974199 -1.10743046 3.6374445 C-1 1 -1 1 0 0 Z " fill="#FDFDFD" transform="translate(100,112)"/>
</svg>
